<svg width="56" height="56" viewBox="0 0 56 56" fill="none" xmlns="http://www.w3.org/2000/svg">
<path d="M47.9696 2.96803C48.2964 2.79221 48.6796 2.75331 49.035 2.85989C49.3905 2.96647 49.6891 3.20981 49.8652 3.53643C52.0605 7.61231 53.2065 12.1706 53.2 16.8C53.2074 21.4293 52.0623 25.9875 49.868 30.0636C49.692 30.3907 49.3933 30.6346 49.0375 30.7414C48.6818 30.8483 48.2981 30.8094 47.971 30.6334C47.6439 30.4574 47.4001 30.1587 47.2932 29.8029C47.1864 29.4472 47.2252 29.0635 47.4012 28.7364C49.3764 25.0683 50.407 20.9661 50.4 16.8C50.407 12.634 49.3764 8.53172 47.4012 4.86363C47.2254 4.53685 47.1865 4.15363 47.2931 3.79819C47.3997 3.44274 47.643 3.14415 47.9696 2.96803ZM41.4596 8.49523C41.6293 8.42443 41.8113 8.38776 41.9951 8.38729C42.179 8.38683 42.3612 8.42259 42.5312 8.49253C42.7013 8.56248 42.8559 8.66523 42.9862 8.79493C43.1165 8.92463 43.22 9.07873 43.2908 9.24843C44.2883 11.6411 44.8013 14.2078 44.8 16.8C44.8013 19.3923 44.2883 21.959 43.2908 24.3516C43.2253 24.5286 43.1247 24.6905 42.9951 24.8276C42.8654 24.9647 42.7094 25.0742 42.5364 25.1495C42.3634 25.2248 42.1769 25.2643 41.9882 25.2657C41.7995 25.2671 41.6125 25.2304 41.4384 25.1576C41.2642 25.0849 41.1066 24.9778 40.9749 24.8426C40.8433 24.7074 40.7403 24.547 40.6722 24.3711C40.6041 24.1951 40.5723 24.0072 40.5786 23.8186C40.585 23.63 40.6294 23.4446 40.7092 23.2736C41.5633 21.2224 42.0021 19.022 42 16.8C42 14.504 41.5408 12.32 40.7092 10.3264C40.5661 9.98407 40.5647 9.59889 40.7054 9.25552C40.8461 8.91215 41.1174 8.63869 41.4596 8.49523ZM14 16.8C14 13.8296 15.18 10.9808 17.2804 8.88043C19.3808 6.78003 22.2296 5.60003 25.2 5.60003C28.1704 5.60003 31.0192 6.78003 33.1196 8.88043C35.22 10.9808 36.4 13.8296 36.4 16.8C36.4 19.7705 35.22 22.6192 33.1196 24.7196C31.0192 26.82 28.1704 28 25.2 28C22.2296 28 19.3808 26.82 17.2804 24.7196C15.18 22.6192 14 19.7705 14 16.8ZM25.2 8.40003C22.9722 8.40003 20.8356 9.28503 19.2603 10.8603C17.685 12.4356 16.8 14.5722 16.8 16.8C16.8 19.0278 17.685 21.1644 19.2603 22.7397C20.8356 24.315 22.9722 25.2 25.2 25.2C27.4278 25.2 29.5644 24.315 31.1397 22.7397C32.715 21.1644 33.6 19.0278 33.6 16.8C33.6 14.5722 32.715 12.4356 31.1397 10.8603C29.5644 9.28503 27.4278 8.40003 25.2 8.40003ZM5.60001 36.4C5.60001 33.2836 8.12841 30.8 11.2252 30.8H39.2C40.6852 30.8 42.1096 31.39 43.1598 32.4402C44.21 33.4904 44.8 34.9148 44.8 36.4C44.8 41.1348 42.4676 44.7048 38.822 47.0316C35.2324 49.3192 30.394 50.4 25.2 50.4C20.006 50.4 15.1676 49.3192 11.578 47.0316C7.93241 44.7076 5.60001 41.132 5.60001 36.4ZM11.2252 33.6C9.65441 33.6 8.40001 34.8516 8.40001 36.4C8.40001 40.0652 10.1416 42.7952 13.0844 44.6684C16.0804 46.5808 20.342 47.6 25.2 47.6C30.058 47.6 34.3196 46.5808 37.3156 44.6684C40.2556 42.7924 42 40.068 42 36.4C42 35.6574 41.705 34.9452 41.1799 34.4201C40.6548 33.895 39.9426 33.6 39.2 33.6H11.2252Z" fill="#081830"/>
</svg>
