<svg width="56" height="56" viewBox="0 0 56 56" fill="none" xmlns="http://www.w3.org/2000/svg">
<path d="M28 14C30.2003 14 31.2993 14 31.983 14.6837C32.6667 15.3673 32.6667 16.4663 32.6667 18.6667V37.3333C32.6667 39.5337 32.6667 40.6327 31.983 41.3163C31.2993 42 30.2003 42 28 42M28 14C25.7997 14 24.7007 14 24.017 14.6837C23.3333 15.3673 23.3333 16.4663 23.3333 18.6667V37.3333C23.3333 39.5337 23.3333 40.6327 24.017 41.3163C24.7007 42 25.7997 42 28 42M28 14V7M28 42V49M44.3333 11.6667C46.5337 11.6667 47.6327 11.6667 48.3163 12.3503C49 13.034 49 14.133 49 16.3333V21C49 23.2003 49 24.2993 48.3163 24.983C47.6327 25.6667 46.5337 25.6667 44.3333 25.6667M44.3333 11.6667C42.133 11.6667 41.034 11.6667 40.3503 12.3503C39.6667 13.034 39.6667 14.133 39.6667 16.3333V21C39.6667 23.2003 39.6667 24.2993 40.3503 24.983C41.034 25.6667 42.133 25.6667 44.3333 25.6667M44.3333 11.6667V7M44.3333 25.6667V30.3333M11.6667 23.3333C13.867 23.3333 14.966 23.3333 15.6497 24.017C16.3333 24.7007 16.3333 25.7997 16.3333 28V32.6667C16.3333 34.867 16.3333 35.966 15.6497 36.6497C14.966 37.3333 13.867 37.3333 11.6667 37.3333M11.6667 23.3333C9.46633 23.3333 8.36733 23.3333 7.68367 24.017C7 24.7007 7 25.7997 7 28V32.6667C7 34.867 7 35.966 7.68367 36.6497C8.36733 37.3333 9.46633 37.3333 11.6667 37.3333M11.6667 23.3333V18.6667M11.6667 37.3333V42" stroke="#081830" stroke-width="2" stroke-linecap="round" stroke-linejoin="round"/>
</svg>
