<svg width="54" height="54" viewBox="0 0 54 54" fill="none" xmlns="http://www.w3.org/2000/svg">
<path d="M21.325 28.341V28.391H21.375H23.625H23.675V28.341V14.9288V14.8788H23.625H21.375H21.325V14.9288V28.341ZM13.7965 28.341V28.391L13.8464 28.391L16.0964 28.3933L16.1465 28.3933V28.3433V19.215V19.165H16.0965H13.8465H13.7965V19.215V28.341ZM28.8535 28.341V28.391H28.9035H31.1535H31.2035V28.341V21.375V21.325H31.1535H28.9035H28.8535V21.375V28.341ZM45.6666 47.2854L45.7025 47.3212L45.7379 47.2848L47.2859 45.6918L47.3202 45.6565L47.2854 45.6216L34.4642 32.8005C35.652 31.4392 36.5867 29.8814 37.2684 28.1274C37.9562 26.3573 38.3 24.4814 38.3 22.5C38.3 18.092 36.7679 14.3547 33.7044 11.2911L33.7043 11.2911C30.6378 8.22908 26.8997 6.6985 22.4932 6.7C18.0867 6.70151 14.3517 8.23435 11.2911 11.2979C8.23057 14.3615 6.7 18.0988 6.7 22.5068C6.7 26.9147 8.23057 30.6505 11.2911 33.7111L11.2912 33.7111C14.3532 36.7702 18.0905 38.3 22.5 38.3H22.5C24.4814 38.2985 26.3573 37.9547 28.1273 37.2684C29.8816 36.5881 31.4536 35.6533 32.8429 34.4639L45.6666 47.2854ZM32.0271 32.1015C29.4116 34.726 26.2368 36.0378 22.5 36.0378C18.7632 36.0378 15.5884 34.726 12.9729 32.1015C10.3574 29.477 9.05 26.2917 9.05 22.5428C9.05 18.7938 10.3574 15.6093 12.9729 12.9863C15.5884 10.3633 18.7632 9.0515 22.5 9.05C26.2368 9.04851 29.4116 10.3596 32.0271 12.984C34.6426 15.6086 35.95 18.7938 35.95 22.5428C35.95 26.2917 34.6426 29.477 32.0271 32.1015Z" fill="#081830" stroke="#081830" stroke-width="0.1"/>
</svg>
